<svg xmlns="http://www.w3.org/2000/svg" viewBox="0 0 200 200"><defs><style>.cls-1{fill:#fefd02;}.cls-2{fill:#0a0704;}.cls-3{fill:#fefefe;}</style></defs><title>资源 1</title><g id="图层_2" data-name="图层 2"><g id="图层_1-2" data-name="图层 1"><rect class="cls-1" width="200" height="200" rx="21.28"/><path class="cls-2" d="M140,74.12a92.06,92.06,0,0,1-.07,10c-.45,4.14,1.64,4.48,4.71,3.68,1.92-.5,3.74-1.52,5.68-1.78,3.54-.47,6.91.46,8.35,4,1.54,3.8-1.33,5.93-4.2,7.41s-6.15,2.45-9.2,3.74c-4.13,1.76-5.36,4.62-3.33,8.81,5.91,12.24,14.51,21.41,28.18,24.8,1.65.41,3.4.64,3.86,2.59s-.69,3.49-2.2,4.67c-3.94,3.1-8.72,4.1-13.46,4.81-3.11.46-4.85,1.61-5.19,4.8-.5,4.63-3,6.25-7.59,5.16-9.08-2.16-17.11-.31-24.89,5.28-15.11,10.86-26.74,10.8-41.57,0-7.56-5.52-15.43-7.42-24.39-5.21-4.59,1.13-7.51-.07-8-5.21-.28-3.14-2-4.38-5.18-4.8-4.61-.6-9.17-1.7-13.09-4.47-1.56-1.1-2.78-2.36-2.58-4.49.23-2.42,2.12-2.71,3.91-3.13,13.39-3.16,21.74-12.22,27.76-23.89,2.7-5.23,1.63-7.71-3.93-10.1-2.74-1.17-5.63-2-8.29-3.35-3-1.48-5.63-3.66-4.06-7.43,1.48-3.54,4.78-4.54,8.35-3.82,11.58,2.32,11.52,2.34,9.73-10.1-2.09-14.53,2-27,13.26-36.66,20.3-17.26,54.05-10.07,65.11,13.7C140.88,59.8,140.45,67,140,74.12Z"/><path class="cls-3" d="M171.28,138.33c-4.52,4-9.48,5-14.35,5.57-4,.49-6.22,2.19-6.58,6-.33,3.47-1.63,4.37-5.19,3.63a30.61,30.61,0,0,0-25.44,5.37C104.79,169.75,95,169.75,80.25,159a30.4,30.4,0,0,0-25.91-5.3c-3,.68-4.35-.07-4.65-3.08-.45-4.54-3-6.35-7.56-6.87S33,142.24,28.6,138.4c8.89-2.11,16.12-6,22-12.25A52.91,52.91,0,0,0,60.92,111c2.51-5.7.83-10.07-4.86-12.61-2.72-1.22-5.65-2-8.37-3.23C46,94.35,43.35,93.49,44.37,91c.9-2.19,3.31-2.52,5.59-1.52a16.72,16.72,0,0,0,7.73,1.7c3.59-.2,6-1.25,5.46-5.74A143.32,143.32,0,0,1,62.41,69c.11-19,11.79-32.3,30.61-35.23,17.06-2.65,31.94,3.74,40.07,17.11a26.78,26.78,0,0,1,4.14,14.16c0,6.82.06,13.66-.44,20.45-.33,4.49,1.89,5.53,5.53,5.62a18.56,18.56,0,0,0,7.2-1.76c2.38-.93,5.07-.77,6.07,1.67s-1.74,3.28-3.41,4.06c-2.69,1.27-5.63,2-8.34,3.24-5.82,2.67-7.49,6.73-4.81,12.59C145.37,124.82,155.38,134.61,171.28,138.33Z"/></g></g></svg>