<svg xmlns="http://www.w3.org/2000/svg" width="40.008" height="39.992" viewBox="0 0 40.008 39.992">
  <g id="组_6511" data-name="组 6511" transform="translate(0.008)">
    <path id="路径_7135" data-name="路径 7135" d="M13.681,8.686h7.744a1.922,1.922,0,0,1,1.795,1.236l.992,2.6a1.6,1.6,0,0,0,1.495,1.031H38.722A1.278,1.278,0,0,0,40,12.269V9a9.028,9.028,0,0,0-9-9H9A9.028,9.028,0,0,0,0,9V21.778a67.865,67.865,0,0,1,7.886-.439c9.739,0,16.389,1.822,18.056,3.461,1.219,1.189,1.775,2.286,1.811,5.039a1.441,1.441,0,0,1-1.439,1.467H18.569a1.92,1.92,0,0,1-1.795-1.236l-.992-2.6a1.6,1.6,0,0,0-1.494-1.031H1.272A1.283,1.283,0,0,0-.008,27.722v3.269a9.028,9.028,0,0,0,9,9h22a9.028,9.028,0,0,0,9-9V18.214a67.2,67.2,0,0,1-7.883.439c-9.742,0-16.389-1.822-18.056-3.458-1.219-1.189-1.772-2.289-1.811-5.042a1.447,1.447,0,0,1,1.439-1.467Z" fill="#00b645"/>
  </g>
</svg>
